<svg width="4" height="18" viewBox="0 0 4 18" fill="none" xmlns="http://www.w3.org/2000/svg">
<path d="M0.263183 9C0.263183 9.39556 0.369159 9.78224 0.567708 10.1111C0.766258 10.44 1.04846 10.6964 1.37864 10.8478C1.70882 10.9991 2.07213 11.0387 2.42265 10.9616C2.77316 10.8844 3.09512 10.6939 3.34783 10.4142C3.60054 10.1345 3.77263 9.77814 3.84235 9.39018C3.91207 9.00222 3.87629 8.60008 3.73953 8.23463C3.60276 7.86918 3.37116 7.55682 3.07401 7.33706C2.77686 7.1173 2.42751 7 2.07013 7C1.5909 7 1.13129 7.21071 0.792425 7.58579C0.453557 7.96086 0.263183 8.46957 0.263183 9ZM0.263184 16C0.263184 16.3956 0.369159 16.7822 0.567709 17.1111C0.766258 17.44 1.04846 17.6964 1.37864 17.8478C1.70882 17.9991 2.07213 18.0387 2.42265 17.9616C2.77316 17.8844 3.09512 17.6939 3.34783 17.4142C3.60054 17.1345 3.77263 16.7781 3.84235 16.3902C3.91207 16.0022 3.87629 15.6001 3.73953 15.2346C3.60276 14.8692 3.37116 14.5568 3.07401 14.3371C2.77686 14.1173 2.42751 14 2.07013 14C1.5909 14 1.13129 14.2107 0.792426 14.5858C0.453558 14.9609 0.263183 15.4696 0.263184 16ZM0.263183 2C0.263183 2.39556 0.369159 2.78224 0.567708 3.11114C0.766258 3.44004 1.04846 3.69638 1.37864 3.84776C1.70882 3.99913 2.07213 4.03874 2.42264 3.96157C2.77316 3.8844 3.09512 3.69392 3.34783 3.41421C3.60054 3.13451 3.77263 2.77814 3.84235 2.39018C3.91207 2.00222 3.87629 1.60008 3.73953 1.23463C3.60276 0.869181 3.37116 0.556824 3.07401 0.337061C2.77686 0.117298 2.42751 -1.04713e-07 2.07013 -8.74228e-08C1.5909 -6.42368e-08 1.13129 0.210714 0.792425 0.585787C0.453557 0.960859 0.263183 1.46957 0.263183 2Z" fill="#757B81"/>
</svg>
